<svg xmlns="http://www.w3.org/2000/svg" xmlns:xlink="http://www.w3.org/1999/xlink" width="1200" zoomAndPan="magnify" viewBox="0 0 900 225" height="300" preserveAspectRatio="xMidYMid meet" version="1.0"><defs><g/><clipPath id="21dcb0552e"><rect x="0" width="98" y="0" height="114"/></clipPath></defs><rect x="-90" width="1080" fill="#ffffff" y="-22.5" height="270" fill-opacity="1"/><rect x="-90" width="1080" fill="#ffffff" y="-22.5" height="270" fill-opacity="1"/><g fill="#4f46e5" fill-opacity="1"><g transform="translate(224.743832, 139.039499)"><g><path d="M 61.109375 -18.765625 C 61.109375 -18.765625 61.109375 -18.363281 61.109375 -17.5625 C 63.273438 -18.039062 65.335938 -18.660156 67.296875 -19.421875 C 69.265625 -20.191406 71.210938 -20.976562 73.140625 -21.78125 C 73.460938 -21.851562 73.765625 -21.96875 74.046875 -22.125 C 74.328125 -22.289062 74.625 -22.453125 74.9375 -22.609375 C 75.257812 -22.773438 75.601562 -22.914062 75.96875 -23.03125 C 76.332031 -23.15625 76.671875 -22.976562 76.984375 -22.5 C 77.390625 -21.851562 77.570312 -21.207031 77.53125 -20.5625 C 77.488281 -19.925781 77.226562 -19.488281 76.75 -19.25 C 76.269531 -18.925781 75.804688 -18.664062 75.359375 -18.46875 C 74.921875 -18.269531 74.460938 -18.085938 73.984375 -17.921875 C 71.898438 -17.117188 69.8125 -16.335938 67.71875 -15.578125 C 65.632812 -14.816406 63.550781 -14.15625 61.46875 -13.59375 C 59.46875 -13.03125 58.023438 -11.867188 57.140625 -10.109375 C 54.171875 -4.171875 50.363281 1 45.71875 5.40625 C 38.570312 12.226562 30.066406 15.195312 20.203125 14.3125 C 19.085938 14.226562 18.023438 14.046875 17.015625 13.765625 C 16.015625 13.492188 15.035156 13.078125 14.078125 12.515625 C 11.910156 11.234375 10.503906 9.507812 9.859375 7.34375 C 9.222656 5.175781 9.46875 2.96875 10.59375 0.71875 C 11.226562 -0.5625 12.066406 -1.742188 13.109375 -2.828125 C 14.148438 -3.910156 15.234375 -4.894531 16.359375 -5.78125 C 19.484375 -8.019531 22.789062 -9.679688 26.28125 -10.765625 C 29.769531 -11.847656 33.320312 -12.671875 36.9375 -13.234375 C 38.78125 -13.472656 40.140625 -13.628906 41.015625 -13.703125 C 41.898438 -13.785156 42.519531 -13.96875 42.875 -14.25 C 43.238281 -14.53125 43.519531 -15.09375 43.71875 -15.9375 C 43.925781 -16.78125 44.269531 -18.164062 44.75 -20.09375 C 45.707031 -24.019531 46.445312 -28.007812 46.96875 -32.0625 C 47.5 -36.113281 48.003906 -40.179688 48.484375 -44.265625 C 48.722656 -46.671875 48.941406 -49.097656 49.140625 -51.546875 C 49.335938 -53.992188 49.554688 -56.460938 49.796875 -58.953125 C 49.160156 -58.703125 48.738281 -58.335938 48.53125 -57.859375 C 48.332031 -57.378906 48.15625 -56.941406 48 -56.546875 C 45.914062 -52.773438 43.847656 -49.003906 41.796875 -45.234375 C 39.753906 -41.460938 37.570312 -37.734375 35.25 -34.046875 C 34.363281 -32.597656 33.4375 -31.171875 32.46875 -29.765625 C 31.507812 -28.367188 30.507812 -26.988281 29.46875 -25.625 C 27.226562 -23.0625 24.722656 -21.535156 21.953125 -21.046875 C 19.179688 -20.566406 16.316406 -20.726562 13.359375 -21.53125 C 12.066406 -21.851562 11.039062 -22.453125 10.28125 -23.328125 C 9.519531 -24.210938 8.859375 -25.21875 8.296875 -26.34375 C 7.421875 -28.269531 6.820312 -30.273438 6.5 -32.359375 C 6.175781 -34.441406 6.015625 -36.523438 6.015625 -38.609375 C 6.097656 -49.203125 8.90625 -58.867188 14.4375 -67.609375 C 19.40625 -75.390625 26.257812 -80.203125 35 -82.046875 C 37.570312 -82.609375 40.0625 -82.707031 42.46875 -82.34375 C 44.875 -81.976562 47.238281 -81.273438 49.5625 -80.234375 C 50.207031 -79.910156 50.804688 -79.648438 51.359375 -79.453125 C 51.921875 -79.253906 52.363281 -79.71875 52.6875 -80.84375 C 52.851562 -81.320312 53.175781 -81.617188 53.65625 -81.734375 C 54.132812 -81.859375 54.613281 -81.921875 55.09375 -81.921875 C 56.21875 -81.921875 57.378906 -81.941406 58.578125 -81.984375 C 59.785156 -82.023438 60.988281 -82.046875 62.1875 -82.046875 C 63.71875 -82.117188 64.722656 -81.4375 65.203125 -80 C 65.835938 -78.226562 66.238281 -76.34375 66.40625 -74.34375 C 67.125 -64.882812 67.179688 -55.519531 66.578125 -46.25 C 65.984375 -36.988281 64.160156 -27.828125 61.109375 -18.765625 Z M 25.625 -67.609375 C 23.375 -63.429688 21.488281 -59.140625 19.96875 -54.734375 C 18.445312 -50.328125 17.804688 -45.675781 18.046875 -40.78125 C 18.046875 -40.300781 18.046875 -39.800781 18.046875 -39.28125 C 18.046875 -38.757812 18.046875 -38.253906 18.046875 -37.765625 C 18.128906 -34.640625 18.648438 -31.515625 19.609375 -28.390625 C 20.253906 -26.378906 21.414062 -26.019531 23.09375 -27.3125 C 23.65625 -27.707031 24.132812 -28.1875 24.53125 -28.75 C 24.9375 -29.3125 25.300781 -29.875 25.625 -30.4375 C 29.394531 -36.125 32.960938 -41.914062 36.328125 -47.8125 C 39.691406 -53.707031 42.941406 -59.703125 46.078125 -65.796875 C 46.640625 -66.765625 47.140625 -67.726562 47.578125 -68.6875 C 48.015625 -69.65625 48.472656 -70.617188 48.953125 -71.578125 C 49.203125 -71.972656 49.363281 -72.367188 49.4375 -72.765625 C 49.519531 -73.171875 49.359375 -73.578125 48.953125 -73.984375 C 47.429688 -75.742188 45.347656 -76.925781 42.703125 -77.53125 C 40.054688 -78.132812 37.691406 -77.953125 35.609375 -76.984375 C 33.359375 -76.023438 31.410156 -74.742188 29.765625 -73.140625 C 28.128906 -71.535156 26.75 -69.691406 25.625 -67.609375 Z M 39.9375 -5.890625 C 40.175781 -6.367188 40.457031 -6.910156 40.78125 -7.515625 C 41.101562 -8.117188 41.179688 -8.863281 41.015625 -9.75 C 37.171875 -9.257812 33.460938 -8.535156 29.890625 -7.578125 C 26.328125 -6.617188 23.097656 -4.734375 20.203125 -1.921875 C 19.648438 -1.441406 19.128906 -0.84375 18.640625 -0.125 C 16.878906 2.28125 16.679688 4.726562 18.046875 7.21875 C 19.410156 9.46875 21.695312 10.3125 24.90625 9.75 C 27.789062 9.1875 30.316406 7.738281 32.484375 5.40625 C 34.085938 3.726562 35.488281 1.945312 36.6875 0.0625 C 37.894531 -1.820312 38.976562 -3.804688 39.9375 -5.890625 Z M 39.9375 -5.890625 "/></g></g></g><g fill="#4f46e5" fill-opacity="1"><g transform="translate(301.48332, 139.039499)"><g><path d="M 50.40625 -35 C 51.207031 -34.519531 51.488281 -34.039062 51.25 -33.5625 C 51.007812 -33.082031 50.726562 -32.601562 50.40625 -32.125 C 47.59375 -27.945312 44.722656 -23.8125 41.796875 -19.71875 C 38.867188 -15.632812 35.925781 -11.546875 32.96875 -7.453125 C 31.195312 -5.128906 29.109375 -3.484375 26.703125 -2.515625 C 24.296875 -1.554688 21.828125 -1.15625 19.296875 -1.3125 C 16.773438 -1.476562 14.390625 -2.0625 12.140625 -3.0625 C 9.898438 -4.070312 8.054688 -5.414062 6.609375 -7.09375 C 4.453125 -9.820312 2.726562 -12.726562 1.4375 -15.8125 C 0.15625 -18.90625 -0.765625 -22.175781 -1.328125 -25.625 C -1.566406 -26.820312 -1.742188 -28.039062 -1.859375 -29.28125 C -1.984375 -30.53125 -2.003906 -31.796875 -1.921875 -33.078125 C -1.835938 -36.929688 -1.375 -40.722656 -0.53125 -44.453125 C 0.300781 -48.179688 1.640625 -51.8125 3.484375 -55.34375 C 4.523438 -57.34375 5.785156 -59.203125 7.265625 -60.921875 C 8.753906 -62.648438 10.503906 -64.078125 12.515625 -65.203125 C 14.753906 -66.484375 16.992188 -67.203125 19.234375 -67.359375 C 21.484375 -67.523438 23.734375 -66.847656 25.984375 -65.328125 C 28.234375 -63.796875 29.757812 -61.945312 30.5625 -59.78125 C 31.363281 -57.625 31.5625 -55.21875 31.15625 -52.5625 C 30.4375 -47.832031 28.769531 -43.863281 26.15625 -40.65625 C 23.550781 -37.445312 19.925781 -35.160156 15.28125 -33.796875 C 13.75 -33.398438 13.023438 -32.476562 13.109375 -31.03125 C 13.191406 -27.582031 13.570312 -24.191406 14.25 -20.859375 C 14.9375 -17.535156 15.800781 -14.269531 16.84375 -11.0625 C 17.320312 -9.625 18.082031 -8.34375 19.125 -7.21875 C 20.570312 -5.695312 22.175781 -5.535156 23.9375 -6.734375 C 24.582031 -7.140625 25.144531 -7.601562 25.625 -8.125 C 26.101562 -8.644531 26.582031 -9.1875 27.0625 -9.75 C 29.945312 -13.03125 32.710938 -16.414062 35.359375 -19.90625 C 38.015625 -23.394531 40.625 -26.90625 43.1875 -30.4375 C 43.664062 -31.15625 44.164062 -31.894531 44.6875 -32.65625 C 45.207031 -33.414062 45.75 -34.160156 46.3125 -34.890625 C 46.957031 -35.609375 47.554688 -35.96875 48.109375 -35.96875 C 48.671875 -35.96875 49.4375 -35.644531 50.40625 -35 Z M 15.03125 -49.6875 C 14.550781 -47.757812 14.128906 -45.8125 13.765625 -43.84375 C 13.410156 -41.882812 13.234375 -39.859375 13.234375 -37.765625 C 13.628906 -37.691406 13.96875 -37.691406 14.25 -37.765625 C 14.53125 -37.847656 14.789062 -37.972656 15.03125 -38.140625 C 16.957031 -39.253906 18.601562 -40.972656 19.96875 -43.296875 C 21.332031 -45.628906 22.253906 -48.117188 22.734375 -50.765625 C 23.210938 -53.410156 23.132812 -55.773438 22.5 -57.859375 C 22.414062 -57.941406 22.375 -58.039062 22.375 -58.15625 C 22.375 -58.28125 22.332031 -58.382812 22.25 -58.46875 C 22.007812 -58.945312 21.75 -59.40625 21.46875 -59.84375 C 21.1875 -60.289062 20.765625 -60.515625 20.203125 -60.515625 C 19.648438 -60.585938 19.210938 -60.421875 18.890625 -60.015625 C 18.566406 -59.617188 18.285156 -59.179688 18.046875 -58.703125 C 17.484375 -57.179688 16.941406 -55.675781 16.421875 -54.1875 C 15.898438 -52.707031 15.4375 -51.207031 15.03125 -49.6875 Z M 15.03125 -49.6875 "/></g></g></g><g fill="#4f46e5" fill-opacity="1"><g transform="translate(346.829388, 139.039499)"><g><path d="M 29.59375 -34.28125 C 29.59375 -34.28125 29.390625 -34.203125 28.984375 -34.046875 C 28.984375 -33.804688 28.984375 -33.566406 28.984375 -33.328125 C 28.984375 -33.085938 29.023438 -32.84375 29.109375 -32.59375 C 30.148438 -28.664062 30.453125 -24.796875 30.015625 -20.984375 C 29.578125 -17.179688 28.59375 -13.4375 27.0625 -9.75 C 25.382812 -5.65625 22.957031 -2.804688 19.78125 -1.203125 C 16.613281 0.398438 12.90625 0.722656 8.65625 -0.234375 C 6.414062 -0.796875 4.53125 -1.738281 3 -3.0625 C 1.476562 -4.382812 0.238281 -6.007812 -0.71875 -7.9375 C -1.84375 -10.101562 -2.582031 -12.328125 -2.9375 -14.609375 C -3.300781 -16.898438 -3.40625 -19.207031 -3.25 -21.53125 C -2.84375 -25.78125 -2.019531 -29.890625 -0.78125 -33.859375 C 0.457031 -37.828125 2.242188 -41.578125 4.578125 -45.109375 C 5.296875 -46.234375 6.078125 -47.296875 6.921875 -48.296875 C 7.765625 -49.296875 8.707031 -50.195312 9.75 -51 C 11.59375 -52.363281 13.253906 -53.046875 14.734375 -53.046875 C 16.222656 -53.046875 17.847656 -52.40625 19.609375 -51.125 C 20.328125 -50.5625 21.023438 -49.976562 21.703125 -49.375 C 22.390625 -48.78125 23.054688 -48.160156 23.703125 -47.515625 C 24.179688 -47.035156 24.660156 -46.554688 25.140625 -46.078125 C 25.617188 -45.597656 26.097656 -45.113281 26.578125 -44.625 C 29.472656 -41.65625 32.644531 -39.550781 36.09375 -38.3125 C 39.539062 -37.070312 43.347656 -37.015625 47.515625 -38.140625 C 48.160156 -38.296875 48.820312 -38.429688 49.5 -38.546875 C 50.1875 -38.671875 50.847656 -38.773438 51.484375 -38.859375 C 52.046875 -39.015625 52.546875 -39.007812 52.984375 -38.84375 C 53.429688 -38.6875 53.734375 -38.289062 53.890625 -37.65625 C 54.210938 -36.375 53.691406 -35.53125 52.328125 -35.125 C 48.960938 -34.320312 45.570312 -33.695312 42.15625 -33.25 C 38.75 -32.8125 35.320312 -32.992188 31.875 -33.796875 C 31.476562 -33.960938 31.097656 -34.066406 30.734375 -34.109375 C 30.367188 -34.148438 29.988281 -34.207031 29.59375 -34.28125 Z M 17.328125 -42.109375 C 17.085938 -42.421875 16.84375 -42.738281 16.59375 -43.0625 C 16.351562 -43.382812 15.992188 -43.625 15.515625 -43.78125 C 14.878906 -43.0625 14.359375 -42.28125 13.953125 -41.4375 C 13.554688 -40.59375 13.195312 -39.734375 12.875 -38.859375 C 12.15625 -36.535156 11.550781 -34.171875 11.0625 -31.765625 C 10.582031 -29.359375 10.179688 -26.953125 9.859375 -24.546875 C 9.460938 -21.972656 9.285156 -19.398438 9.328125 -16.828125 C 9.367188 -14.265625 9.789062 -11.703125 10.59375 -9.140625 C 10.75 -8.503906 10.945312 -7.863281 11.1875 -7.21875 C 11.425781 -6.570312 11.785156 -5.96875 12.265625 -5.40625 C 13.546875 -3.726562 14.988281 -3.609375 16.59375 -5.046875 C 17.71875 -6.085938 18.679688 -7.453125 19.484375 -9.140625 C 22.210938 -14.835938 23.316406 -20.429688 22.796875 -25.921875 C 22.273438 -31.421875 20.453125 -36.816406 17.328125 -42.109375 Z M 17.328125 -42.109375 "/></g></g></g><g transform="matrix(1, 0, 0, 1, 688, 61)"><g clip-path="url(#21dcb0552e)"><g fill="#4f46e5" fill-opacity="1"><g transform="translate(1.87568, 88.124772)"><g><path d="M 4.671875 -5.046875 C 4.609375 -5.859375 4.890625 -6.578125 5.515625 -7.203125 C 6.140625 -7.828125 6.921875 -8.171875 7.859375 -8.234375 C 8.796875 -8.234375 9.5625 -7.9375 10.15625 -7.34375 C 10.75 -6.75 11.078125 -6.015625 11.140625 -5.140625 C 11.203125 -3.273438 10.328125 -2.3125 8.515625 -2.25 C 7.515625 -2.25 6.640625 -2.515625 5.890625 -3.046875 C 5.140625 -3.578125 4.734375 -4.242188 4.671875 -5.046875 Z M 4.671875 -5.046875 "/></g></g></g><g fill="#4f46e5" fill-opacity="1"><g transform="translate(17.686138, 88.124772)"><g><path d="M 14.96875 -46.3125 C 13.90625 -44.5625 13.0625 -42.734375 12.4375 -40.828125 C 11.820312 -38.929688 11.390625 -36.75 11.140625 -34.28125 C 10.890625 -31.820312 10.765625 -28.847656 10.765625 -25.359375 C 10.828125 -23.046875 11.085938 -20.25 11.546875 -16.96875 C 12.015625 -13.695312 12.84375 -10.378906 14.03125 -7.015625 C 14.34375 -5.953125 14.734375 -4.921875 15.203125 -3.921875 C 15.671875 -2.929688 16.1875 -1.96875 16.75 -1.03125 C 17.875 0.71875 19.117188 0.84375 20.484375 -0.65625 C 21.359375 -1.65625 22.1875 -2.726562 22.96875 -3.875 C 23.75 -5.03125 24.453125 -6.203125 25.078125 -7.390625 C 26.816406 -10.816406 28.546875 -14.242188 30.265625 -17.671875 C 31.984375 -21.109375 33.617188 -24.570312 35.171875 -28.0625 C 35.296875 -28.25 35.40625 -28.4375 35.5 -28.625 C 35.59375 -28.8125 35.703125 -29.03125 35.828125 -29.28125 C 36.140625 -30.03125 36.703125 -30.21875 37.515625 -29.84375 C 37.703125 -29.71875 37.90625 -29.609375 38.125 -29.515625 C 38.34375 -29.421875 38.546875 -29.34375 38.734375 -29.28125 C 39.796875 -28.84375 40.078125 -28.097656 39.578125 -27.046875 C 38.890625 -25.546875 38.21875 -24.046875 37.5625 -22.546875 C 36.90625 -21.046875 36.234375 -19.550781 35.546875 -18.0625 C 34.617188 -16.0625 33.6875 -14.0625 32.75 -12.0625 C 31.8125 -10.070312 30.875 -8.078125 29.9375 -6.078125 C 29.625 -5.390625 29.296875 -4.71875 28.953125 -4.0625 C 28.609375 -3.414062 28.25 -2.78125 27.875 -2.15625 C 26.445312 0.21875 24.59375 1.929688 22.3125 2.984375 C 20.039062 4.046875 17.65625 4.390625 15.15625 4.015625 C 12.664062 3.648438 10.390625 2.5625 8.328125 0.75 C 7.390625 -0.125 6.546875 -1.09375 5.796875 -2.15625 C 5.046875 -3.21875 4.394531 -4.304688 3.84375 -5.421875 C 2.53125 -7.921875 1.546875 -10.507812 0.890625 -13.1875 C 0.234375 -15.875 -0.1875 -18.617188 -0.375 -21.421875 C -0.5 -23.859375 -0.515625 -26.273438 -0.421875 -28.671875 C -0.328125 -31.078125 0 -33.492188 0.5625 -35.921875 C 1.1875 -38.359375 2.070312 -40.648438 3.21875 -42.796875 C 4.375 -44.953125 5.859375 -46.90625 7.671875 -48.65625 C 8.859375 -49.84375 10.132812 -50.835938 11.5 -51.640625 C 12.875 -52.453125 14.40625 -53.015625 16.09375 -53.328125 C 19.769531 -54.015625 22.828125 -52.894531 25.265625 -49.96875 C 26.390625 -48.71875 27.179688 -47.34375 27.640625 -45.84375 C 28.109375 -44.34375 28.4375 -42.816406 28.625 -41.265625 C 28.75 -40.265625 28.34375 -39.671875 27.40625 -39.484375 C 27.039062 -39.421875 26.6875 -39.375 26.34375 -39.34375 C 26 -39.3125 25.671875 -39.265625 25.359375 -39.203125 C 24.609375 -39.015625 24.078125 -39.359375 23.765625 -40.234375 C 23.140625 -41.859375 22.484375 -43.476562 21.796875 -45.09375 C 21.171875 -46.59375 20.332031 -47.8125 19.28125 -48.75 C 18.40625 -49.5625 17.53125 -49.53125 16.65625 -48.65625 C 16.34375 -48.34375 16.046875 -47.984375 15.765625 -47.578125 C 15.484375 -47.171875 15.21875 -46.75 14.96875 -46.3125 Z M 14.96875 -46.3125 "/></g></g></g><g fill="#4f46e5" fill-opacity="1"><g transform="translate(52.862099, 88.124772)"><g><path d="M 14.96875 -46.3125 C 13.90625 -44.5625 13.0625 -42.734375 12.4375 -40.828125 C 11.820312 -38.929688 11.390625 -36.75 11.140625 -34.28125 C 10.890625 -31.820312 10.765625 -28.847656 10.765625 -25.359375 C 10.828125 -23.046875 11.085938 -20.25 11.546875 -16.96875 C 12.015625 -13.695312 12.84375 -10.378906 14.03125 -7.015625 C 14.34375 -5.953125 14.734375 -4.921875 15.203125 -3.921875 C 15.671875 -2.929688 16.1875 -1.96875 16.75 -1.03125 C 17.875 0.71875 19.117188 0.84375 20.484375 -0.65625 C 21.359375 -1.65625 22.1875 -2.726562 22.96875 -3.875 C 23.75 -5.03125 24.453125 -6.203125 25.078125 -7.390625 C 26.816406 -10.816406 28.546875 -14.242188 30.265625 -17.671875 C 31.984375 -21.109375 33.617188 -24.570312 35.171875 -28.0625 C 35.296875 -28.25 35.40625 -28.4375 35.5 -28.625 C 35.59375 -28.8125 35.703125 -29.03125 35.828125 -29.28125 C 36.140625 -30.03125 36.703125 -30.21875 37.515625 -29.84375 C 37.703125 -29.71875 37.90625 -29.609375 38.125 -29.515625 C 38.34375 -29.421875 38.546875 -29.34375 38.734375 -29.28125 C 39.796875 -28.84375 40.078125 -28.097656 39.578125 -27.046875 C 38.890625 -25.546875 38.21875 -24.046875 37.5625 -22.546875 C 36.90625 -21.046875 36.234375 -19.550781 35.546875 -18.0625 C 34.617188 -16.0625 33.6875 -14.0625 32.75 -12.0625 C 31.8125 -10.070312 30.875 -8.078125 29.9375 -6.078125 C 29.625 -5.390625 29.296875 -4.71875 28.953125 -4.0625 C 28.609375 -3.414062 28.25 -2.78125 27.875 -2.15625 C 26.445312 0.21875 24.59375 1.929688 22.3125 2.984375 C 20.039062 4.046875 17.65625 4.390625 15.15625 4.015625 C 12.664062 3.648438 10.390625 2.5625 8.328125 0.75 C 7.390625 -0.125 6.546875 -1.09375 5.796875 -2.15625 C 5.046875 -3.21875 4.394531 -4.304688 3.84375 -5.421875 C 2.53125 -7.921875 1.546875 -10.507812 0.890625 -13.1875 C 0.234375 -15.875 -0.1875 -18.617188 -0.375 -21.421875 C -0.5 -23.859375 -0.515625 -26.273438 -0.421875 -28.671875 C -0.328125 -31.078125 0 -33.492188 0.5625 -35.921875 C 1.1875 -38.359375 2.070312 -40.648438 3.21875 -42.796875 C 4.375 -44.953125 5.859375 -46.90625 7.671875 -48.65625 C 8.859375 -49.84375 10.132812 -50.835938 11.5 -51.640625 C 12.875 -52.453125 14.40625 -53.015625 16.09375 -53.328125 C 19.769531 -54.015625 22.828125 -52.894531 25.265625 -49.96875 C 26.390625 -48.71875 27.179688 -47.34375 27.640625 -45.84375 C 28.109375 -44.34375 28.4375 -42.816406 28.625 -41.265625 C 28.75 -40.265625 28.34375 -39.671875 27.40625 -39.484375 C 27.039062 -39.421875 26.6875 -39.375 26.34375 -39.34375 C 26 -39.3125 25.671875 -39.265625 25.359375 -39.203125 C 24.609375 -39.015625 24.078125 -39.359375 23.765625 -40.234375 C 23.140625 -41.859375 22.484375 -43.476562 21.796875 -45.09375 C 21.171875 -46.59375 20.332031 -47.8125 19.28125 -48.75 C 18.40625 -49.5625 17.53125 -49.53125 16.65625 -48.65625 C 16.34375 -48.34375 16.046875 -47.984375 15.765625 -47.578125 C 15.484375 -47.171875 15.21875 -46.75 14.96875 -46.3125 Z M 14.96875 -46.3125 "/></g></g></g></g></g><g fill="#4f46e5" fill-opacity="1"><g transform="translate(385.195239, 150.690148)"><g><path d="M 59.546875 -33.6875 C 57.546875 -33.519531 55.519531 -33.375 53.46875 -33.25 C 51.425781 -33.132812 49.320312 -33 47.15625 -32.84375 C 47.15625 -31.800781 47.296875 -30.894531 47.578125 -30.125 C 47.859375 -29.363281 48.078125 -28.582031 48.234375 -27.78125 C 48.878906 -25.457031 49.441406 -23.09375 49.921875 -20.6875 C 50.398438 -18.28125 50.640625 -15.875 50.640625 -13.46875 C 50.804688 -6.175781 47.800781 -0.722656 41.625 2.890625 C 33.28125 7.773438 24.378906 8.894531 14.921875 6.25 C 12.035156 5.445312 9.523438 3.90625 7.390625 1.625 C 5.265625 -0.65625 3.738281 -3.359375 2.8125 -6.484375 C 1.894531 -9.617188 1.71875 -12.75 2.28125 -15.875 C 3.007812 -19.488281 4.394531 -22.515625 6.4375 -24.953125 C 8.476562 -27.398438 11.144531 -29.390625 14.4375 -30.921875 C 16.28125 -31.878906 18.222656 -32.640625 20.265625 -33.203125 C 22.316406 -33.765625 24.34375 -34.242188 26.34375 -34.640625 C 27.863281 -34.878906 28.722656 -35.160156 28.921875 -35.484375 C 29.128906 -35.804688 28.992188 -36.648438 28.515625 -38.015625 C 27.222656 -42.023438 25.9375 -46.035156 24.65625 -50.046875 C 23.375 -54.054688 22.332031 -58.101562 21.53125 -62.1875 C 20.96875 -65.238281 20.664062 -68.285156 20.625 -71.328125 C 20.59375 -74.378906 21.054688 -77.390625 22.015625 -80.359375 C 23.140625 -84.128906 24.921875 -87.253906 27.359375 -89.734375 C 29.804688 -92.222656 33 -93.867188 36.9375 -94.671875 C 40.945312 -95.472656 44.851562 -94.910156 48.65625 -92.984375 C 52.46875 -91.066406 55.21875 -88.222656 56.90625 -84.453125 C 57.863281 -82.285156 58.582031 -80.035156 59.0625 -77.703125 C 59.539062 -75.378906 59.660156 -73.015625 59.421875 -70.609375 C 59.347656 -69.410156 59.171875 -68.671875 58.890625 -68.390625 C 58.609375 -68.109375 57.863281 -67.847656 56.65625 -67.609375 C 55.851562 -67.523438 55.03125 -67.421875 54.1875 -67.296875 C 53.351562 -67.179688 52.492188 -67.046875 51.609375 -66.890625 C 50.242188 -66.722656 49.398438 -67.363281 49.078125 -68.8125 C 48.753906 -70.25 48.429688 -71.648438 48.109375 -73.015625 C 47.796875 -74.378906 47.4375 -75.742188 47.03125 -77.109375 C 46.226562 -80.078125 44.945312 -82.960938 43.1875 -85.765625 C 42.707031 -86.492188 42.164062 -87.15625 41.5625 -87.75 C 40.957031 -88.351562 40.175781 -88.578125 39.21875 -88.421875 C 38.25 -88.335938 37.523438 -87.929688 37.046875 -87.203125 C 36.566406 -86.484375 36.164062 -85.722656 35.84375 -84.921875 C 34.882812 -82.273438 34.34375 -79.609375 34.21875 -76.921875 C 34.101562 -74.242188 34.242188 -71.539062 34.640625 -68.8125 C 34.960938 -67.039062 35.382812 -65.289062 35.90625 -63.5625 C 36.425781 -61.84375 37.007812 -60.101562 37.65625 -58.34375 C 38.851562 -55.21875 40.015625 -52.085938 41.140625 -48.953125 C 42.265625 -45.828125 43.390625 -42.703125 44.515625 -39.578125 C 45.078125 -38.128906 45.535156 -37.285156 45.890625 -37.046875 C 46.253906 -36.804688 47.195312 -36.726562 48.71875 -36.8125 C 51.84375 -37.050781 54.988281 -37.289062 58.15625 -37.53125 C 61.332031 -37.769531 64.484375 -38.25 67.609375 -38.96875 C 68.003906 -39.050781 68.566406 -39.175781 69.296875 -39.34375 C 70.335938 -39.414062 70.9375 -38.890625 71.09375 -37.765625 C 71.257812 -36.648438 70.859375 -35.972656 69.890625 -35.734375 C 68.128906 -35.328125 66.40625 -34.898438 64.71875 -34.453125 C 63.03125 -34.015625 61.304688 -33.757812 59.546875 -33.6875 Z M 28.515625 1.921875 C 30.921875 1.117188 32.679688 -0.238281 33.796875 -2.15625 C 34.921875 -4.082031 35.484375 -6.769531 35.484375 -10.21875 C 35.242188 -13.1875 34.703125 -16.316406 33.859375 -19.609375 C 33.015625 -22.898438 32.113281 -26.1875 31.15625 -29.46875 C 30.832031 -30.75 29.988281 -31.234375 28.625 -30.921875 C 26.707031 -30.597656 24.785156 -30.15625 22.859375 -29.59375 C 20.929688 -29.03125 19.125 -28.1875 17.4375 -27.0625 C 14.550781 -25.300781 12.546875 -22.773438 11.421875 -19.484375 C 9.421875 -13.234375 10.34375 -7.460938 14.1875 -2.171875 C 15.875 0.160156 17.976562 1.664062 20.5 2.34375 C 23.03125 3.03125 25.703125 2.890625 28.515625 1.921875 Z M 28.515625 1.921875 "/></g></g></g><g fill="#4f46e5" fill-opacity="1"><g transform="translate(451.710815, 150.690148)"><g><path d="M 0.84375 -14.4375 C 0.0390625 -19.332031 -0.519531 -24.203125 -0.84375 -29.046875 C -1.164062 -33.898438 -1.164062 -38.65625 -0.84375 -43.3125 C -1 -48.125 -0.875 -52.8125 -0.46875 -57.375 C -0.0703125 -61.945312 0.40625 -66.519531 0.96875 -71.09375 C 1.207031 -72.539062 1.203125 -73.382812 0.953125 -73.625 C 0.710938 -73.863281 -0.164062 -73.984375 -1.6875 -73.984375 C -2.8125 -73.984375 -3.953125 -73.984375 -5.109375 -73.984375 C -6.273438 -73.984375 -7.421875 -73.984375 -8.546875 -73.984375 C -9.179688 -74.066406 -9.816406 -74.164062 -10.453125 -74.28125 C -11.097656 -74.40625 -11.382812 -74.988281 -11.3125 -76.03125 C -11.3125 -76.988281 -11.171875 -77.664062 -10.890625 -78.0625 C -10.609375 -78.46875 -9.945312 -78.753906 -8.90625 -78.921875 C -7.375 -79.160156 -5.847656 -79.378906 -4.328125 -79.578125 C -2.804688 -79.773438 -1.285156 -79.914062 0.234375 -80 C 1.835938 -80.15625 2.800781 -81.035156 3.125 -82.640625 C 3.445312 -84.160156 3.828125 -85.644531 4.265625 -87.09375 C 4.710938 -88.539062 5.175781 -89.984375 5.65625 -91.421875 C 6.21875 -93.023438 7.300781 -93.789062 8.90625 -93.71875 C 10.03125 -93.632812 11.128906 -93.613281 12.203125 -93.65625 C 13.285156 -93.695312 14.347656 -93.71875 15.390625 -93.71875 C 16.597656 -93.632812 17.34375 -93.429688 17.625 -93.109375 C 17.90625 -92.785156 18.046875 -92.023438 18.046875 -90.828125 C 18.128906 -88.816406 18.085938 -86.769531 17.921875 -84.6875 C 17.765625 -83.082031 17.804688 -82.140625 18.046875 -81.859375 C 18.285156 -81.578125 19.25 -81.4375 20.9375 -81.4375 C 24.300781 -81.519531 27.6875 -81.679688 31.09375 -81.921875 C 34.5 -82.160156 37.890625 -82.203125 41.265625 -82.046875 C 42.703125 -82.046875 44.160156 -82.046875 45.640625 -82.046875 C 47.128906 -82.046875 48.632812 -81.960938 50.15625 -81.796875 C 51.445312 -81.722656 52.269531 -81.441406 52.625 -80.953125 C 52.988281 -80.472656 53.09375 -79.632812 52.9375 -78.4375 C 52.769531 -77.550781 52.367188 -77.066406 51.734375 -76.984375 C 51.171875 -76.910156 50.644531 -76.832031 50.15625 -76.75 C 49.675781 -76.664062 49.15625 -76.625 48.59375 -76.625 C 43.945312 -76.382812 39.273438 -76.144531 34.578125 -75.90625 C 29.890625 -75.664062 25.179688 -75.382812 20.453125 -75.0625 C 18.765625 -74.976562 17.757812 -74.796875 17.4375 -74.515625 C 17.125 -74.242188 16.84375 -73.222656 16.59375 -71.453125 C 16.113281 -67.117188 15.734375 -62.765625 15.453125 -58.390625 C 15.171875 -54.023438 14.875 -49.679688 14.5625 -45.359375 C 14.238281 -40.460938 14.035156 -35.585938 13.953125 -30.734375 C 13.867188 -25.878906 13.867188 -21.007812 13.953125 -16.125 C 14.035156 -13.3125 14.296875 -10.539062 14.734375 -7.8125 C 15.171875 -5.09375 15.710938 -2.367188 16.359375 0.359375 C 16.597656 1.398438 16.957031 2.484375 17.4375 3.609375 C 18.238281 5.210938 19.082031 6.070312 19.96875 6.1875 C 20.851562 6.3125 21.894531 5.691406 23.09375 4.328125 C 23.570312 3.847656 23.992188 3.328125 24.359375 2.765625 C 24.722656 2.203125 25.0625 1.640625 25.375 1.078125 C 27.0625 -1.722656 28.445312 -4.609375 29.53125 -7.578125 C 30.613281 -10.546875 31.71875 -13.515625 32.84375 -16.484375 C 33.726562 -18.804688 34.550781 -21.109375 35.3125 -23.390625 C 36.070312 -25.679688 36.851562 -27.988281 37.65625 -30.3125 C 37.8125 -30.789062 37.96875 -31.269531 38.125 -31.75 C 38.289062 -32.238281 38.695312 -32.484375 39.34375 -32.484375 C 40.945312 -32.554688 42.304688 -32.15625 43.421875 -31.28125 C 43.660156 -31.039062 43.78125 -30.78125 43.78125 -30.5 C 43.78125 -30.21875 43.742188 -29.957031 43.671875 -29.71875 C 42.140625 -24.5 40.648438 -19.300781 39.203125 -14.125 C 37.765625 -8.957031 35.765625 -3.96875 33.203125 0.84375 C 32.722656 1.800781 32.117188 2.765625 31.390625 3.734375 C 29.148438 7.015625 26.382812 9.035156 23.09375 9.796875 C 19.8125 10.566406 16.320312 10.390625 12.625 9.265625 C 11.269531 8.859375 10.109375 8.132812 9.140625 7.09375 C 8.179688 6.050781 7.335938 4.890625 6.609375 3.609375 C 5.085938 0.804688 3.863281 -2.117188 2.9375 -5.171875 C 2.019531 -8.222656 1.320312 -11.3125 0.84375 -14.4375 Z M 0.84375 -14.4375 "/></g></g></g><g fill="#4f46e5" fill-opacity="1"><g transform="translate(489.358877, 150.690148)"><g><path d="M 64.59375 -33.6875 C 65.71875 -33.207031 66.335938 -32.804688 66.453125 -32.484375 C 66.578125 -32.160156 66.398438 -31.394531 65.921875 -30.1875 C 63.597656 -24.976562 61.210938 -19.828125 58.765625 -14.734375 C 56.316406 -9.640625 53.769531 -4.566406 51.125 0.484375 C 50.5625 1.609375 49.921875 2.726562 49.203125 3.84375 C 48.484375 4.96875 47.679688 6.015625 46.796875 6.984375 C 45.191406 8.742188 43.265625 9.800781 41.015625 10.15625 C 38.773438 10.519531 36.609375 10.238281 34.515625 9.3125 C 32.429688 8.394531 30.832031 6.894531 29.71875 4.8125 C 28.507812 2.488281 27.601562 0.0664062 27 -2.453125 C 26.40625 -4.984375 25.90625 -7.535156 25.5 -10.109375 C 25.101562 -12.515625 24.84375 -14.898438 24.71875 -17.265625 C 24.601562 -19.628906 24.460938 -22.015625 24.296875 -24.421875 C 24.296875 -24.660156 24.296875 -24.957031 24.296875 -25.3125 C 24.296875 -25.675781 24.097656 -26.019531 23.703125 -26.34375 C 23.054688 -25.144531 22.390625 -23.984375 21.703125 -22.859375 C 21.023438 -21.734375 20.328125 -20.570312 19.609375 -19.375 C 18.960938 -18.25 18.257812 -17.164062 17.5 -16.125 C 16.738281 -15.082031 15.914062 -14.035156 15.03125 -12.984375 C 13.269531 -11.140625 11.066406 -10.21875 8.421875 -10.21875 C 5.054688 -10.21875 2.726562 -11.742188 1.4375 -14.796875 C 0.800781 -16.316406 0.320312 -17.878906 0 -19.484375 C -0.320312 -21.085938 -0.519531 -22.691406 -0.59375 -24.296875 C -0.757812 -27.742188 -0.601562 -31.113281 -0.125 -34.40625 C 0.351562 -37.695312 1.273438 -40.90625 2.640625 -44.03125 C 4.242188 -47.71875 6.390625 -50.84375 9.078125 -53.40625 C 11.765625 -55.976562 15.195312 -57.664062 19.375 -58.46875 C 20.8125 -58.707031 22.191406 -58.742188 23.515625 -58.578125 C 24.835938 -58.421875 26.179688 -58.179688 27.546875 -57.859375 C 28.347656 -57.703125 29.269531 -57.785156 30.3125 -58.109375 C 31.914062 -58.742188 33.578125 -59.039062 35.296875 -59 C 37.023438 -58.96875 38.734375 -58.910156 40.421875 -58.828125 C 40.816406 -58.828125 41.09375 -58.6875 41.25 -58.40625 C 41.414062 -58.125 41.539062 -57.820312 41.625 -57.5 C 41.863281 -56.78125 42.003906 -56.039062 42.046875 -55.28125 C 42.085938 -54.519531 42.109375 -53.773438 42.109375 -53.046875 C 42.023438 -46.628906 41.820312 -40.234375 41.5 -33.859375 C 41.175781 -27.484375 40.816406 -21.085938 40.421875 -14.671875 C 40.253906 -12.265625 40.128906 -9.878906 40.046875 -7.515625 C 39.972656 -5.148438 39.976562 -2.765625 40.0625 -0.359375 C 40.0625 0.273438 40.097656 0.953125 40.171875 1.671875 C 40.253906 2.398438 40.457031 3.125 40.78125 3.84375 C 41.425781 3.601562 41.925781 3.222656 42.28125 2.703125 C 42.644531 2.179688 42.988281 1.722656 43.3125 1.328125 C 45.226562 -1.484375 46.988281 -4.390625 48.59375 -7.390625 C 50.195312 -10.398438 51.765625 -13.429688 53.296875 -16.484375 C 54.660156 -19.046875 55.960938 -21.628906 57.203125 -24.234375 C 58.441406 -26.847656 59.703125 -29.4375 60.984375 -32 C 61.628906 -33.28125 62.128906 -34 62.484375 -34.15625 C 62.847656 -34.320312 63.550781 -34.164062 64.59375 -33.6875 Z M 27.546875 -49.328125 C 27.703125 -51.003906 27.316406 -52.203125 26.390625 -52.921875 C 25.472656 -53.648438 24.210938 -53.8125 22.609375 -53.40625 C 21.972656 -53.164062 21.375 -52.863281 20.8125 -52.5 C 20.25 -52.144531 19.726562 -51.726562 19.25 -51.25 C 18.28125 -50.363281 17.4375 -49.421875 16.71875 -48.421875 C 16 -47.421875 15.316406 -46.398438 14.671875 -45.359375 C 12.265625 -41.585938 10.582031 -37.632812 9.625 -33.5 C 8.664062 -29.375 8.144531 -25.101562 8.0625 -20.6875 C 8.0625 -20.363281 8.039062 -20.019531 8 -19.65625 C 7.957031 -19.300781 7.976562 -18.960938 8.0625 -18.640625 C 8.144531 -17.921875 8.101562 -17.117188 7.9375 -16.234375 C 7.78125 -15.359375 8.222656 -14.800781 9.265625 -14.5625 C 10.148438 -14.3125 10.832031 -14.566406 11.3125 -15.328125 C 11.789062 -16.097656 12.191406 -16.800781 12.515625 -17.4375 C 15.234375 -21.9375 17.734375 -26.53125 20.015625 -31.21875 C 22.304688 -35.90625 24.492188 -40.617188 26.578125 -45.359375 C 27.066406 -46.554688 27.390625 -47.878906 27.546875 -49.328125 Z M 27.546875 -49.328125 "/></g></g></g><g fill="#4f46e5" fill-opacity="1"><g transform="translate(551.303763, 150.690148)"><g><path d="M 0.84375 -14.4375 C 0.0390625 -19.332031 -0.519531 -24.203125 -0.84375 -29.046875 C -1.164062 -33.898438 -1.164062 -38.65625 -0.84375 -43.3125 C -1 -48.125 -0.875 -52.8125 -0.46875 -57.375 C -0.0703125 -61.945312 0.40625 -66.519531 0.96875 -71.09375 C 1.207031 -72.539062 1.203125 -73.382812 0.953125 -73.625 C 0.710938 -73.863281 -0.164062 -73.984375 -1.6875 -73.984375 C -2.8125 -73.984375 -3.953125 -73.984375 -5.109375 -73.984375 C -6.273438 -73.984375 -7.421875 -73.984375 -8.546875 -73.984375 C -9.179688 -74.066406 -9.816406 -74.164062 -10.453125 -74.28125 C -11.097656 -74.40625 -11.382812 -74.988281 -11.3125 -76.03125 C -11.3125 -76.988281 -11.171875 -77.664062 -10.890625 -78.0625 C -10.609375 -78.46875 -9.945312 -78.753906 -8.90625 -78.921875 C -7.375 -79.160156 -5.847656 -79.378906 -4.328125 -79.578125 C -2.804688 -79.773438 -1.285156 -79.914062 0.234375 -80 C 1.835938 -80.15625 2.800781 -81.035156 3.125 -82.640625 C 3.445312 -84.160156 3.828125 -85.644531 4.265625 -87.09375 C 4.710938 -88.539062 5.175781 -89.984375 5.65625 -91.421875 C 6.21875 -93.023438 7.300781 -93.789062 8.90625 -93.71875 C 10.03125 -93.632812 11.128906 -93.613281 12.203125 -93.65625 C 13.285156 -93.695312 14.347656 -93.71875 15.390625 -93.71875 C 16.597656 -93.632812 17.34375 -93.429688 17.625 -93.109375 C 17.90625 -92.785156 18.046875 -92.023438 18.046875 -90.828125 C 18.128906 -88.816406 18.085938 -86.769531 17.921875 -84.6875 C 17.765625 -83.082031 17.804688 -82.140625 18.046875 -81.859375 C 18.285156 -81.578125 19.25 -81.4375 20.9375 -81.4375 C 24.300781 -81.519531 27.6875 -81.679688 31.09375 -81.921875 C 34.5 -82.160156 37.890625 -82.203125 41.265625 -82.046875 C 42.703125 -82.046875 44.160156 -82.046875 45.640625 -82.046875 C 47.128906 -82.046875 48.632812 -81.960938 50.15625 -81.796875 C 51.445312 -81.722656 52.269531 -81.441406 52.625 -80.953125 C 52.988281 -80.472656 53.09375 -79.632812 52.9375 -78.4375 C 52.769531 -77.550781 52.367188 -77.066406 51.734375 -76.984375 C 51.171875 -76.910156 50.644531 -76.832031 50.15625 -76.75 C 49.675781 -76.664062 49.15625 -76.625 48.59375 -76.625 C 43.945312 -76.382812 39.273438 -76.144531 34.578125 -75.90625 C 29.890625 -75.664062 25.179688 -75.382812 20.453125 -75.0625 C 18.765625 -74.976562 17.757812 -74.796875 17.4375 -74.515625 C 17.125 -74.242188 16.84375 -73.222656 16.59375 -71.453125 C 16.113281 -67.117188 15.734375 -62.765625 15.453125 -58.390625 C 15.171875 -54.023438 14.875 -49.679688 14.5625 -45.359375 C 14.238281 -40.460938 14.035156 -35.585938 13.953125 -30.734375 C 13.867188 -25.878906 13.867188 -21.007812 13.953125 -16.125 C 14.035156 -13.3125 14.296875 -10.539062 14.734375 -7.8125 C 15.171875 -5.09375 15.710938 -2.367188 16.359375 0.359375 C 16.597656 1.398438 16.957031 2.484375 17.4375 3.609375 C 18.238281 5.210938 19.082031 6.070312 19.96875 6.1875 C 20.851562 6.3125 21.894531 5.691406 23.09375 4.328125 C 23.570312 3.847656 23.992188 3.328125 24.359375 2.765625 C 24.722656 2.203125 25.0625 1.640625 25.375 1.078125 C 27.0625 -1.722656 28.445312 -4.609375 29.53125 -7.578125 C 30.613281 -10.546875 31.71875 -13.515625 32.84375 -16.484375 C 33.726562 -18.804688 34.550781 -21.109375 35.3125 -23.390625 C 36.070312 -25.679688 36.851562 -27.988281 37.65625 -30.3125 C 37.8125 -30.789062 37.96875 -31.269531 38.125 -31.75 C 38.289062 -32.238281 38.695312 -32.484375 39.34375 -32.484375 C 40.945312 -32.554688 42.304688 -32.15625 43.421875 -31.28125 C 43.660156 -31.039062 43.78125 -30.78125 43.78125 -30.5 C 43.78125 -30.21875 43.742188 -29.957031 43.671875 -29.71875 C 42.140625 -24.5 40.648438 -19.300781 39.203125 -14.125 C 37.765625 -8.957031 35.765625 -3.96875 33.203125 0.84375 C 32.722656 1.800781 32.117188 2.765625 31.390625 3.734375 C 29.148438 7.015625 26.382812 9.035156 23.09375 9.796875 C 19.8125 10.566406 16.320312 10.390625 12.625 9.265625 C 11.269531 8.859375 10.109375 8.132812 9.140625 7.09375 C 8.179688 6.050781 7.335938 4.890625 6.609375 3.609375 C 5.085938 0.804688 3.863281 -2.117188 2.9375 -5.171875 C 2.019531 -8.222656 1.320312 -11.3125 0.84375 -14.4375 Z M 0.84375 -14.4375 "/></g></g></g><g fill="#4f46e5" fill-opacity="1"><g transform="translate(588.951837, 150.690148)"><g><path d="M 36.453125 -33.5625 C 36.453125 -33.40625 36.410156 -33.285156 36.328125 -33.203125 C 35.765625 -32.796875 35.398438 -32.332031 35.234375 -31.8125 C 35.078125 -31.289062 34.878906 -30.789062 34.640625 -30.3125 C 33.679688 -28.070312 32.71875 -25.828125 31.75 -23.578125 C 30.789062 -21.328125 29.832031 -19.082031 28.875 -16.84375 C 27.664062 -14.195312 26.179688 -11.789062 24.421875 -9.625 C 22.578125 -7.300781 20.070312 -5.773438 16.90625 -5.046875 C 13.738281 -4.328125 10.832031 -4.609375 8.1875 -5.890625 C 7.0625 -6.453125 6.15625 -7.175781 5.46875 -8.0625 C 4.789062 -8.945312 4.210938 -9.910156 3.734375 -10.953125 C 2.765625 -13.035156 2.078125 -15.195312 1.671875 -17.4375 C 1.273438 -19.6875 1 -21.9375 0.84375 -24.1875 C 0.601562 -30.113281 0.582031 -36.046875 0.78125 -41.984375 C 0.976562 -47.921875 1.441406 -53.851562 2.171875 -59.78125 C 2.242188 -60.269531 2.335938 -60.734375 2.453125 -61.171875 C 2.578125 -61.609375 2.640625 -62.03125 2.640625 -62.4375 C 2.804688 -63.3125 3.367188 -63.789062 4.328125 -63.875 C 5.609375 -64.039062 6.929688 -64.179688 8.296875 -64.296875 C 9.660156 -64.421875 11.023438 -64.519531 12.390625 -64.59375 C 13.429688 -64.59375 14.09375 -64.472656 14.375 -64.234375 C 14.65625 -63.992188 14.753906 -63.3125 14.671875 -62.1875 C 14.515625 -59.300781 14.375 -56.414062 14.25 -53.53125 C 14.132812 -50.644531 13.957031 -47.757812 13.71875 -44.875 C 13.3125 -40.539062 12.988281 -36.207031 12.75 -31.875 C 12.507812 -27.539062 12.671875 -23.171875 13.234375 -18.765625 C 13.390625 -17.566406 13.566406 -16.382812 13.765625 -15.21875 C 13.972656 -14.050781 14.359375 -12.945312 14.921875 -11.90625 C 15.640625 -10.226562 16.679688 -10.03125 18.046875 -11.3125 C 18.441406 -11.789062 18.800781 -12.289062 19.125 -12.8125 C 19.445312 -13.332031 19.769531 -13.875 20.09375 -14.4375 C 22.257812 -18.125 24.160156 -21.910156 25.796875 -25.796875 C 27.441406 -29.691406 29.066406 -33.644531 30.671875 -37.65625 C 31.953125 -40.863281 33.253906 -44.050781 34.578125 -47.21875 C 35.898438 -50.382812 37.207031 -53.613281 38.5 -56.90625 C 38.8125 -57.78125 39.25 -58.4375 39.8125 -58.875 C 40.375 -59.320312 41.175781 -59.503906 42.21875 -59.421875 C 43.019531 -59.347656 43.820312 -59.367188 44.625 -59.484375 C 45.425781 -59.609375 46.226562 -59.707031 47.03125 -59.78125 C 48.476562 -59.863281 49.28125 -59.1875 49.4375 -57.75 C 49.675781 -55.65625 49.757812 -53.609375 49.6875 -51.609375 C 49.363281 -44.234375 48.878906 -36.875 48.234375 -29.53125 C 47.597656 -22.195312 47.238281 -14.835938 47.15625 -7.453125 C 47.15625 -5.691406 47.175781 -3.890625 47.21875 -2.046875 C 47.257812 -0.203125 47.28125 1.601562 47.28125 3.375 C 47.28125 4.175781 47.335938 4.976562 47.453125 5.78125 C 47.578125 6.582031 47.800781 7.382812 48.125 8.1875 C 48.84375 7.539062 49.320312 6.835938 49.5625 6.078125 C 49.800781 5.316406 50.039062 4.570312 50.28125 3.84375 C 51.800781 -0.71875 53.300781 -5.242188 54.78125 -9.734375 C 56.269531 -14.234375 57.78125 -18.769531 59.3125 -23.34375 C 59.550781 -23.976562 59.789062 -24.65625 60.03125 -25.375 C 60.269531 -26.101562 60.507812 -26.785156 60.75 -27.421875 C 61.144531 -28.628906 62.023438 -29.148438 63.390625 -28.984375 C 65.484375 -28.828125 66.648438 -28.566406 66.890625 -28.203125 C 67.128906 -27.847656 66.96875 -26.664062 66.40625 -24.65625 C 64.882812 -19.601562 63.378906 -14.550781 61.890625 -9.5 C 60.410156 -4.445312 58.785156 0.5625 57.015625 5.53125 C 56.703125 6.332031 56.363281 7.15625 56 8 C 55.632812 8.84375 55.253906 9.664062 54.859375 10.46875 C 53.972656 12.394531 52.785156 13.695312 51.296875 14.375 C 49.816406 15.050781 48.113281 15.351562 46.1875 15.28125 C 42.425781 15.113281 39.863281 13.226562 38.5 9.625 C 37.9375 8.175781 37.492188 6.707031 37.171875 5.21875 C 36.847656 3.738281 36.566406 2.238281 36.328125 0.71875 C 35.765625 -3.363281 35.460938 -7.429688 35.421875 -11.484375 C 35.390625 -15.535156 35.53125 -19.609375 35.84375 -23.703125 C 35.925781 -25.304688 36.023438 -26.890625 36.140625 -28.453125 C 36.265625 -30.015625 36.285156 -31.597656 36.203125 -33.203125 C 36.367188 -33.285156 36.453125 -33.363281 36.453125 -33.4375 C 36.453125 -33.4375 36.453125 -33.476562 36.453125 -33.5625 Z M 36.453125 -33.5625 "/></g></g></g><g fill="#4f46e5" fill-opacity="1"><g transform="translate(650.054747, 150.690148)"><g><path d="M 11.90625 -52.5625 C 11.75 -52.8125 11.585938 -53.070312 11.421875 -53.34375 C 11.265625 -53.625 11.023438 -53.96875 10.703125 -54.375 C 10.140625 -52.125 9.675781 -49.957031 9.3125 -47.875 C 8.957031 -45.789062 8.582031 -43.75 8.1875 -41.75 C 6.820312 -34.445312 5.054688 -27.285156 2.890625 -20.265625 C 0.722656 -13.253906 -1.765625 -6.335938 -4.578125 0.484375 C -5.128906 2.003906 -5.6875 2.90625 -6.25 3.1875 C -6.8125 3.46875 -7.773438 3.488281 -9.140625 3.25 C -10.503906 3.007812 -10.988281 2.25 -10.59375 0.96875 C -10.1875 -0.0703125 -9.820312 -1.132812 -9.5 -2.21875 C -9.175781 -3.300781 -8.816406 -4.40625 -8.421875 -5.53125 C -5.535156 -13.957031 -3.128906 -22.5 -1.203125 -31.15625 C 0.722656 -39.820312 2.609375 -48.523438 4.453125 -57.265625 C 4.773438 -58.703125 5.09375 -60.140625 5.40625 -61.578125 C 5.726562 -63.023438 6.050781 -64.429688 6.375 -65.796875 C 7.414062 -70.046875 9.660156 -70.890625 13.109375 -68.328125 C 15.515625 -66.484375 17.441406 -64.398438 18.890625 -62.078125 C 21.773438 -57.421875 24.476562 -52.644531 27 -47.75 C 29.53125 -42.863281 31.640625 -37.773438 33.328125 -32.484375 C 33.804688 -31.117188 34.203125 -30.351562 34.515625 -30.1875 C 34.835938 -30.03125 35.722656 -30.234375 37.171875 -30.796875 C 39.015625 -31.597656 40.816406 -32.4375 42.578125 -33.3125 C 44.347656 -34.195312 46.035156 -35.203125 47.640625 -36.328125 C 48.035156 -36.648438 48.453125 -36.953125 48.890625 -37.234375 C 49.335938 -37.515625 49.800781 -37.734375 50.28125 -37.890625 C 51.726562 -38.210938 52.691406 -37.8125 53.171875 -36.6875 C 53.410156 -36.207031 53.390625 -35.785156 53.109375 -35.421875 C 52.828125 -35.066406 52.523438 -34.726562 52.203125 -34.40625 C 50.835938 -33.445312 49.429688 -32.484375 47.984375 -31.515625 C 46.546875 -30.554688 45.066406 -29.710938 43.546875 -28.984375 C 42.742188 -28.585938 41.921875 -28.207031 41.078125 -27.84375 C 40.234375 -27.488281 39.410156 -27.148438 38.609375 -26.828125 C 37.003906 -26.265625 36.101562 -25.800781 35.90625 -25.4375 C 35.707031 -25.082031 35.769531 -24.140625 36.09375 -22.609375 C 36.332031 -21.734375 36.507812 -20.832031 36.625 -19.90625 C 36.75 -18.988281 36.890625 -18.085938 37.046875 -17.203125 C 37.367188 -15.441406 37.445312 -13.695312 37.28125 -11.96875 C 37.125 -10.25 36.847656 -8.503906 36.453125 -6.734375 C 35.484375 -3.128906 33.394531 -0.285156 30.1875 1.796875 C 27.382812 3.722656 24.4375 4.847656 21.34375 5.171875 C 18.257812 5.492188 15.15625 5.09375 12.03125 3.96875 C 9.21875 3.007812 7.070312 1.488281 5.59375 -0.59375 C 4.113281 -2.6875 3.375 -5.015625 3.375 -7.578125 C 3.375 -10.140625 4.210938 -12.625 5.890625 -15.03125 C 7.421875 -17.195312 9.207031 -18.960938 11.25 -20.328125 C 13.289062 -21.691406 15.472656 -22.894531 17.796875 -23.9375 C 19.160156 -24.582031 20.101562 -25.101562 20.625 -25.5 C 21.144531 -25.90625 21.363281 -26.425781 21.28125 -27.0625 C 21.207031 -27.707031 20.972656 -28.710938 20.578125 -30.078125 C 19.367188 -33.921875 18 -37.707031 16.46875 -41.4375 C 14.945312 -45.164062 13.425781 -48.875 11.90625 -52.5625 Z M 23.8125 -3.25 C 24.21875 -4.375 24.5 -5.515625 24.65625 -6.671875 C 24.820312 -7.835938 24.90625 -8.898438 24.90625 -9.859375 C 24.90625 -11.703125 24.765625 -13.40625 24.484375 -14.96875 C 24.203125 -16.539062 23.859375 -18.085938 23.453125 -19.609375 C 23.210938 -20.890625 22.570312 -21.25 21.53125 -20.6875 C 19.445312 -19.644531 17.5625 -18.398438 15.875 -16.953125 C 14.195312 -15.515625 12.914062 -13.671875 12.03125 -11.421875 C 11.3125 -9.335938 11.210938 -7.351562 11.734375 -5.46875 C 12.253906 -3.582031 13.351562 -2 15.03125 -0.71875 C 16.800781 0.5625 18.503906 0.960938 20.140625 0.484375 C 21.785156 0.00390625 23.007812 -1.238281 23.8125 -3.25 Z M 23.8125 -3.25 "/></g></g></g><g fill="#4f46e5" fill-opacity="1"><g transform="translate(89.285569, 134.719509)"><g><path d="M 91.28125 -78.0625 C 97 -72.707031 99.859375 -69.820312 99.859375 -69.40625 C 99.859375 -68.988281 99.675781 -67.316406 99.3125 -64.390625 C 98.957031 -61.472656 97.617188 -60.101562 95.296875 -60.28125 C 92.984375 -60.46875 90.875 -60.976562 88.96875 -61.8125 C 85.507812 -63.832031 82.113281 -66.0625 78.78125 -68.5 C 75.445312 -70.945312 71.632812 -74.132812 67.34375 -78.0625 C 59.84375 -84.851562 53.53125 -89.859375 48.40625 -93.078125 C 47.101562 -93.785156 45.851562 -94.082031 44.65625 -93.96875 C 43.582031 -93.84375 42.566406 -93.300781 41.609375 -92.34375 C 40.660156 -91.394531 39.535156 -90.03125 38.234375 -88.25 C 31.441406 -78.957031 25.898438 -72.171875 21.609375 -67.890625 C 20.304688 -66.691406 17.867188 -65.675781 14.296875 -64.84375 L 10.1875 -63.59375 C 10.1875 -64.550781 9.945312 -65.984375 9.46875 -67.890625 L 8.9375 -72.34375 C 8.9375 -74.132812 9.171875 -75.445312 9.640625 -76.28125 C 15.710938 -85.570312 25.539062 -97.597656 39.125 -112.359375 C 41.625 -115.097656 44.179688 -116.648438 46.796875 -117.015625 C 49.421875 -117.242188 52.398438 -115.929688 55.734375 -113.078125 C 61.929688 -107.359375 67.828125 -101.523438 73.421875 -95.578125 C 82.953125 -86.160156 88.90625 -80.320312 91.28125 -78.0625 Z M 40.375 11.796875 C 39.894531 8.453125 39.445312 5.257812 39.03125 2.21875 C 38.613281 -0.8125 38.40625 -3.695312 38.40625 -6.4375 C 40.195312 -24.300781 41.207031 -55.921875 41.4375 -101.296875 C 52.632812 -99.390625 57.28125 -99.804688 55.375 -102.546875 C 57.40625 -78.960938 58.117188 -50.5 57.515625 -17.15625 L 55.375 0.890625 C 54.300781 9.941406 52.335938 15.78125 49.484375 18.40625 C 47.578125 19.832031 44.835938 19.945312 41.265625 18.75 Z M 40.375 11.796875 "/></g></g></g><g fill="#4f46e5" fill-opacity="1"><g transform="translate(215.407433, 100.778531)"><g><path d="M -91.28125 78.0625 C -97 72.707031 -99.859375 69.820312 -99.859375 69.40625 C -99.859375 68.988281 -99.675781 67.316406 -99.3125 64.390625 C -98.957031 61.472656 -97.617188 60.101562 -95.296875 60.28125 C -92.984375 60.46875 -90.875 60.976562 -88.96875 61.8125 C -85.507812 63.832031 -82.113281 66.0625 -78.78125 68.5 C -75.445312 70.945312 -71.632812 74.132812 -67.34375 78.0625 C -59.84375 84.851562 -53.53125 89.859375 -48.40625 93.078125 C -47.101562 93.785156 -45.851562 94.082031 -44.65625 93.96875 C -43.582031 93.84375 -42.566406 93.300781 -41.609375 92.34375 C -40.660156 91.394531 -39.535156 90.03125 -38.234375 88.25 C -31.441406 78.957031 -25.898438 72.171875 -21.609375 67.890625 C -20.304688 66.691406 -17.867188 65.675781 -14.296875 64.84375 L -10.1875 63.59375 C -10.1875 64.550781 -9.945312 65.984375 -9.46875 67.890625 L -8.9375 72.34375 C -8.9375 74.132812 -9.171875 75.445312 -9.640625 76.28125 C -15.710938 85.570312 -25.539062 97.597656 -39.125 112.359375 C -41.625 115.097656 -44.179688 116.648438 -46.796875 117.015625 C -49.421875 117.242188 -52.398438 115.929688 -55.734375 113.078125 C -61.929688 107.359375 -67.828125 101.523438 -73.421875 95.578125 C -82.953125 86.160156 -88.90625 80.320312 -91.28125 78.0625 Z M -40.375 -11.796875 C -39.894531 -8.453125 -39.445312 -5.257812 -39.03125 -2.21875 C -38.613281 0.8125 -38.40625 3.695312 -38.40625 6.4375 C -40.195312 24.300781 -41.207031 55.921875 -41.4375 101.296875 C -52.632812 99.390625 -57.28125 99.804688 -55.375 102.546875 C -57.40625 78.960938 -58.117188 50.5 -57.515625 17.15625 L -55.375 -0.890625 C -54.300781 -9.941406 -52.335938 -15.78125 -49.484375 -18.40625 C -47.578125 -19.832031 -44.835938 -19.945312 -41.265625 -18.75 Z M -40.375 -11.796875 "/></g></g></g></svg>